# xmcd
#
# Track frame offsets: 
#        150
#        16602
#        31593
#        47343
#        64596
#        84324
#        98644
#        115246
#        128377
#        142498
#
# Disc length: 2069 seconds
#
# Revision: 3
# Processed by: cddbd v1.5.2PL0 Copyright (c) Steve Scherf et al.
# Submitted via: ExactAudioCopy v1.0b4
#
DISCID=6d08130a
DTITLE=Rosanne Cash - Rhythm And Romance
DYEAR=1985
DGENRE=Country
TTITLE0=Hold On
TTITLE1=I Don't Know Why You Don't Want Me
TTITLE2=Never Be You
TTITLE3=Second To None
TTITLE4=Halfway House
TTITLE5=Pink Bedroom
TTITLE6=Never Alone
TTITLE7=My Old Man
TTITLE8=Never Gonna Hurt
TTITLE9=Closing Time
EXTD=
EXTT0=
EXTT1=
EXTT2=
EXTT3=
EXTT4=
EXTT5=
EXTT6=
EXTT7=
EXTT8=
EXTT9=
PLAYORDER=
